<svg xmlns="http://www.w3.org/2000/svg">
<symbol id="plus" width="12" height="12" viewBox="0 0 12 12" fill="none" xmlns="http://www.w3.org/2000/svg">
<line x1="6" y1="1" x2="6" y2="11" stroke="#8D9295" stroke-width="2" stroke-linecap="round"/>
<line x1="11" y1="6" x2="1" y2="6" stroke="#8D9295" stroke-width="2" stroke-linecap="round"/>
</symbol>
<symbol id="min" width="12" height="2" viewBox="0 0 12 2" fill="none" xmlns="http://www.w3.org/2000/svg">
<path fill-rule="evenodd" clip-rule="evenodd" d="M0 1C0 0.447715 0.335786 0 0.75 0H11.25C11.6642 0 12 0.447715 12 1C12 1.55228 11.6642 2 11.25 2H0.75C0.335786 2 0 1.55228 0 1Z" fill="#8D9295"/>
</symbol>
<symbol id="fav" width="20" height="19" viewBox="0 0 20 19" fill="none" xmlns="http://www.w3.org/2000/svg">
<path d="M10 17C6.40583 15.4602 1.51375 11.0571 1.01457 6.00452C0.787298 3.70415 3.26091 1.00002 5.50727 1.00001C7.61203 1.00001 9.10144 2.15488 9.99998 4.0797C10.8985 2.15488 12.388 0.999995 14.4927 1C16.7391 1.00001 19.2127 3.70413 18.9854 6.00451C18.4862 11.0571 13.5942 15.4602 10 17Z" stroke="black" stroke-width="2"/>
</symbol>
<symbol id="compare" width="20" height="20" viewBox="0 0 20 20" fill="none" xmlns="http://www.w3.org/2000/svg">
<path d="M1.11011 13.7679L4.35515 3.65063L7.86587 13.7679" stroke="black" stroke-width="1.5" stroke-linejoin="round"/>
<path d="M12.1339 13.7679L15.3789 3.65063L18.8896 13.7679" stroke="black" stroke-width="1.5" stroke-linejoin="round"/>
<circle cx="9.99998" cy="3.65061" r="1.5532" stroke="black" stroke-width="1.5"/>
<path d="M11.9136 3.53931H13.3994" stroke="black" stroke-width="1.5" stroke-linecap="round"/>
<path d="M6.59998 3.53931H8.08582" stroke="black" stroke-width="1.5" stroke-linecap="round"/>
<path d="M4.48813 17.231C2.68302 17.231 1.17674 15.9515 0.826716 14.25H8.14955C7.79953 15.9515 6.29325 17.231 4.48813 17.231Z" stroke="black" stroke-width="1.5"/>
<path d="M15.5121 17.231C13.7069 17.231 12.2007 15.9515 11.8506 14.25H19.1735C18.8235 15.9515 17.3172 17.231 15.5121 17.231Z" stroke="black" stroke-width="1.5"/>
</symbol>
<symbol id="cart" width="21" height="18" viewBox="0 0 21 18" fill="none" xmlns="http://www.w3.org/2000/svg">
<path fill-rule="evenodd" clip-rule="evenodd" d="M0.5 1C0.5 0.447715 0.947715 0 1.5 0H3.88919C4.30755 0 4.6817 0.260434 4.82697 0.652768L5.69608 3H19.5C19.8095 3 20.1016 3.14331 20.2909 3.38811C20.4803 3.6329 20.5457 3.95159 20.4679 4.25117L19.3931 8.39351C19.0498 9.71634 17.8559 10.64 16.4892 10.64H7.73613L7.97647 11.3293C8.11652 11.7309 8.49534 12 8.92071 12H16C16.5523 12 17 12.4477 17 13C17 13.5523 16.5523 14 16 14H8.92071C7.6446 14 6.50815 13.1927 6.08798 11.9878L5.38414 9.96925C5.3727 9.93645 5.36298 9.90307 5.35501 9.86925L4.04079 4.28934L3.19311 2H1.5C0.947715 2 0.5 1.55228 0.5 1ZM6.26289 5L7.12021 8.64H16.4892C16.9448 8.64 17.3427 8.33211 17.4572 7.89117L18.2074 5H6.26289ZM9.5 16.5C9.5 17.3284 8.82843 18 8 18C7.17157 18 6.5 17.3284 6.5 16.5C6.5 15.6716 7.17157 15 8 15C8.82843 15 9.5 15.6716 9.5 16.5ZM16 18C16.8284 18 17.5 17.3284 17.5 16.5C17.5 15.6716 16.8284 15 16 15C15.1716 15 14.5 15.6716 14.5 16.5C14.5 17.3284 15.1716 18 16 18Z" fill="black"/>
</symbol>
<symbol id="arrow-right" width="12" height="21" viewBox="0 0 12 21" fill="none" xmlns="http://www.w3.org/2000/svg">
<path d="M1 1L10 10.5L1 20" stroke="black" stroke-width="2" stroke-linecap="round"/>
</symbol>
<symbol id="arrow-left" width="12" height="21" viewBox="0 0 12 21" fill="none" xmlns="http://www.w3.org/2000/svg">
<path d="M11 1L2 10.5L11 20" stroke="black" stroke-width="2" stroke-linecap="round"/>
</symbol>
</svg>
